<?xml version="1.0" encoding="UTF-8"?>

<svg xmlns="http://www.w3.org/2000/svg" version="1.1" width="512px" height="512px"
    style="shape-rendering:geometricPrecision; text-rendering:geometricPrecision; image-rendering:optimizeQuality; fill-rule:evenodd; clip-rule:evenodd"
    xmlns:xlink="http://www.w3.org/1999/xlink">
    <g>
        <path style="opacity:0.941" fill="#6366f1"
            d="M 250.5,27.5 C 258.711,25.5464 264.211,28.5464 267,36.5C 269.349,45.4363 267.182,52.9363 260.5,59C 252.288,61.4587 246.788,58.6254 244,50.5C 241.671,41.4131 243.838,33.7465 250.5,27.5 Z" />
    </g>
    <g>
        <path style="opacity:0.948" fill="#6366f1"
            d="M 249.5,63.5 C 257.05,62.5431 264.05,64.0431 270.5,68C 281.489,75.0862 291.656,83.2529 301,92.5C 301.349,101.409 297.516,103.909 289.5,100C 283.667,95.5 277.833,91 272,86.5C 271.667,107.5 271.333,128.5 271,149.5C 268.833,152.287 265.999,153.12 262.5,152C 261.333,151.5 260.5,150.667 260,149.5C 258.577,139.58 258.077,129.58 258.5,119.5C 256.167,119.5 253.833,119.5 251.5,119.5C 251.666,129.506 251.5,139.506 251,149.5C 248.431,152.57 245.264,153.237 241.5,151.5C 240.194,150.088 239.36,148.421 239,146.5C 238.667,126.833 238.333,107.167 238,87.5C 230.971,92.6948 223.805,97.6948 216.5,102.5C 210.841,101.355 208.675,98.0212 210,92.5C 221.759,80.7249 234.926,71.0582 249.5,63.5 Z" />
    </g>
    <g>
        <path style="opacity:0.939" fill="#6366f1"
            d="M 124.5,68.5 C 139.392,70.2304 145.892,78.5637 144,93.5C 140.19,99.4003 135.023,100.9 128.5,98C 118.134,92.1122 114.967,83.6122 119,72.5C 120.5,70.5313 122.333,69.198 124.5,68.5 Z" />
    </g>
    <g>
        <path style="opacity:0.94" fill="#6366f1"
            d="M 381.5,68.5 C 389.172,68.169 393.505,71.8357 394.5,79.5C 393.08,90.3685 387.08,97.0352 376.5,99.5C 373.236,99.0259 370.402,97.6925 368,95.5C 364.024,82.1191 368.524,73.1191 381.5,68.5 Z" />
    </g>
    <g>
        <path style="opacity:0.948" fill="#6366f1"
            d="M 162.5,94.5 C 173.874,94.7805 185.207,95.6138 196.5,97C 200.489,100.955 200.489,104.955 196.5,109C 187.833,109.333 179.167,109.667 170.5,110C 181.878,125.922 193.378,141.755 205,157.5C 206.087,166.749 202.42,169.415 194,165.5C 189.167,158.667 184.333,151.833 179.5,145C 176.118,144.758 174.285,146.258 174,149.5C 179,156.167 184,162.833 189,169.5C 189.929,178.533 186.262,181.2 178,177.5C 166.72,161.22 155.053,145.22 143,129.5C 140.335,137.489 137.669,145.489 135,153.5C 125.553,157.608 121.887,154.608 124,144.5C 126.337,130.822 130.671,117.822 137,105.5C 138.892,101.942 141.725,99.4421 145.5,98C 151.199,96.3109 156.865,95.1442 162.5,94.5 Z" />
    </g>
    <g>
        <path style="opacity:0.949" fill="#6366f1"
            d="M 336.5,94.5 C 346.342,94.3506 356.009,95.5172 365.5,98C 368.102,98.8834 370.269,100.383 372,102.5C 381.452,118.488 386.285,135.654 386.5,154C 383.634,155.457 380.634,155.79 377.5,155C 373.755,146.771 370.588,138.271 368,129.5C 355.947,145.22 344.28,161.22 333,177.5C 324.664,181.169 320.997,178.502 322,169.5C 327,162.833 332,156.167 337,149.5C 336.873,146.859 335.373,145.192 332.5,144.5C 326.672,151.834 321.006,159.334 315.5,167C 305.285,167.696 302.785,163.529 308,154.5C 318.833,139.667 329.667,124.833 340.5,110C 331.833,109.667 323.167,109.333 314.5,109C 310.511,104.955 310.511,100.955 314.5,97C 321.981,96.1416 329.314,95.3083 336.5,94.5 Z" />
    </g>
    <g>
        <path style="opacity:0.97" fill="#6366f1"
            d="M 241.5,159.5 C 291,155.898 325.834,176.565 346,221.5C 360.531,270.916 346.698,310.083 304.5,339C 282.177,351.387 258.51,354.887 233.5,349.5C 192.495,337.995 167.995,311.328 160,269.5C 155.816,220.042 176.316,185.208 221.5,165C 228.208,162.826 234.875,160.993 241.5,159.5 Z M 245.5,178.5 C 246.491,185.313 246.825,192.313 246.5,199.5C 240.463,199.829 234.463,199.496 228.5,198.5C 232.808,190.538 238.474,183.871 245.5,178.5 Z M 263.5,178.5 C 271.842,183.177 278.175,189.844 282.5,198.5C 276.202,199.496 269.868,199.83 263.5,199.5C 263.5,192.5 263.5,185.5 263.5,178.5 Z M 213.5,187.5 C 214.043,187.56 214.376,187.893 214.5,188.5C 212.833,191.833 211.167,195.167 209.5,198.5C 206.216,199.657 202.882,199.824 199.5,199C 204.065,194.925 208.732,191.091 213.5,187.5 Z M 296.5,187.5 C 301.909,190.734 306.909,194.568 311.5,199C 308.118,199.824 304.784,199.657 301.5,198.5C 299.547,194.931 297.881,191.264 296.5,187.5 Z M 186.5,215.5 C 192.167,215.5 197.833,215.5 203.5,215.5C 201.138,226.033 199.805,236.7 199.5,247.5C 191.833,247.5 184.167,247.5 176.5,247.5C 177.68,236.099 181.013,225.432 186.5,215.5 Z M 221.5,215.5 C 229.833,215.5 238.167,215.5 246.5,215.5C 246.5,226.167 246.5,236.833 246.5,247.5C 236.5,247.5 226.5,247.5 216.5,247.5C 216.876,236.621 218.543,225.954 221.5,215.5 Z M 263.5,215.5 C 272.167,215.5 280.833,215.5 289.5,215.5C 292.457,225.954 294.124,236.62 294.5,247.5C 284.167,247.5 273.833,247.5 263.5,247.5C 263.5,236.833 263.5,226.167 263.5,215.5 Z M 307.5,215.5 C 313.206,215.171 318.872,215.505 324.5,216.5C 330.147,226.09 333.481,236.423 334.5,247.5C 326.833,247.5 319.167,247.5 311.5,247.5C 311.151,236.704 309.817,226.038 307.5,215.5 Z M 176.5,263.5 C 184.167,263.5 191.833,263.5 199.5,263.5C 199.805,274.3 201.138,284.967 203.5,295.5C 197.794,295.829 192.128,295.495 186.5,294.5C 180.859,284.945 177.526,274.612 176.5,263.5 Z M 216.5,263.5 C 226.5,263.5 236.5,263.5 246.5,263.5C 246.5,274.167 246.5,284.833 246.5,295.5C 238.14,295.831 229.807,295.498 221.5,294.5C 218.437,284.395 216.771,274.062 216.5,263.5 Z M 263.5,263.5 C 273.833,263.5 284.167,263.5 294.5,263.5C 294.124,274.38 292.457,285.046 289.5,295.5C 280.833,295.5 272.167,295.5 263.5,295.5C 263.5,284.833 263.5,274.167 263.5,263.5 Z M 311.5,263.5 C 319.167,263.5 326.833,263.5 334.5,263.5C 333.481,274.577 330.147,284.91 324.5,294.5C 318.872,295.495 313.206,295.829 307.5,295.5C 309.817,284.962 311.151,274.296 311.5,263.5 Z M 199.5,312.5 C 202.687,311.194 206.02,311.194 209.5,312.5C 211.619,316.05 213.119,319.717 214,323.5C 209.006,320.001 204.173,316.334 199.5,312.5 Z M 228.5,311.5 C 234.5,311.5 240.5,311.5 246.5,311.5C 246.666,318.508 246.5,325.508 246,332.5C 238.137,327.142 232.304,320.142 228.5,311.5 Z M 263.5,311.5 C 269.868,311.17 276.202,311.504 282.5,312.5C 278.265,320.736 272.265,327.402 264.5,332.5C 263.503,325.532 263.17,318.532 263.5,311.5 Z M 301.5,311.5 C 304.85,311.335 308.183,311.502 311.5,312C 306.954,316.214 302.121,320.047 297,323.5C 298.166,319.479 299.666,315.479 301.5,311.5 Z" />
    </g>
    <g>
        <path style="opacity:0.951" fill="#6366f1"
            d="M 112.5,162.5 C 119.282,161.125 122.448,163.791 122,170.5C 121.215,172.286 120.049,173.786 118.5,175C 112.5,179 106.5,183 100.5,187C 119.048,193.516 137.715,199.85 156.5,206C 161.587,208.589 162.587,212.256 159.5,217C 157.966,217.923 156.299,218.423 154.5,218.5C 145.652,216.44 136.986,213.773 128.5,210.5C 127.123,212.289 126.123,214.289 125.5,216.5C 133.791,219.43 142.124,222.264 150.5,225C 154.559,227.467 155.559,230.967 153.5,235.5C 151.979,236.937 150.145,237.604 148,237.5C 129.079,231.804 110.246,225.804 91.5,219.5C 91.1667,220 90.8333,220.5 90.5,221C 93.1384,228.415 95.4718,235.915 97.5,243.5C 97.5832,247.917 95.4165,250.25 91,250.5C 89.018,250.01 87.3513,249.01 86,247.5C 77.2472,231.917 72.5805,215.25 72,197.5C 74.6016,190.887 78.7683,185.387 84.5,181C 93.4672,174.185 102.801,168.018 112.5,162.5 Z" />
    </g>
    <g>
        <path style="opacity:0.949" fill="#6366f1"
            d="M 391.5,162.5 C 393.857,162.337 396.19,162.503 398.5,163C 412.685,169.849 425.185,179.016 436,190.5C 438.177,194.031 439.344,197.864 439.5,202C 437.48,218.061 432.646,233.228 425,247.5C 422.261,250.747 419.094,251.247 415.5,249C 414.02,247.701 413.354,246.034 413.5,244C 415.425,236.223 417.759,228.557 420.5,221C 420.167,220.5 419.833,220 419.5,219.5C 401.808,225.231 384.141,231.064 366.5,237C 360.34,239.15 356.673,237.15 355.5,231C 356.13,229.108 357.13,227.441 358.5,226C 367.468,222.733 376.468,219.566 385.5,216.5C 384.877,214.289 383.877,212.289 382.5,210.5C 372.866,214.773 362.866,217.273 352.5,218C 348.695,214.284 348.695,210.618 352.5,207C 371.877,200.319 391.211,193.652 410.5,187C 403.579,182.29 396.746,177.456 390,172.5C 387.925,168.794 388.425,165.461 391.5,162.5 Z" />
    </g>
    <g>
        <path style="opacity:0.939" fill="#6366f1"
            d="M 45.5,177.5 C 58.2301,175.187 66.5635,180.02 70.5,192C 69.007,199.592 64.3403,203.092 56.5,202.5C 46.373,202.455 40.0397,197.621 37.5,188C 38.1555,182.858 40.8221,179.358 45.5,177.5 Z" />
    </g>
    <g>
        <path style="opacity:0.948" fill="#6366f1"
            d="M 453.5,177.5 C 457.514,177.334 461.514,177.501 465.5,178C 475.404,183.908 476.07,190.908 467.5,199C 459.12,203.778 450.953,203.611 443,198.5C 439.93,192.729 440.763,187.396 445.5,182.5C 447.928,180.295 450.595,178.628 453.5,177.5 Z" />
    </g>
    <g>
        <path style="opacity:0.949" fill="#6366f1"
            d="M 89.5,260.5 C 94.39,260.15 97.0566,262.317 97.5,267C 95.5748,274.777 93.2414,282.443 90.5,290C 90.8333,290.5 91.1667,291 91.5,291.5C 109.192,285.769 126.859,279.936 144.5,274C 154.033,272.739 156.699,276.406 152.5,285C 143.389,288.147 134.389,291.48 125.5,295C 126.218,296.987 127.218,298.821 128.5,300.5C 137.841,296.436 147.508,293.936 157.5,293C 162.133,296.246 162.466,299.912 158.5,304C 139.123,310.681 119.789,317.348 100.5,324C 107.421,328.71 114.254,333.544 121,338.5C 123.51,346.326 120.677,349.493 112.5,348C 98.3151,341.151 85.8151,331.984 75,320.5C 72.823,316.969 71.6563,313.136 71.5,309C 73.5203,292.939 78.3537,277.772 86,263.5C 87.1451,262.364 88.3117,261.364 89.5,260.5 Z" />
    </g>
    <g>
        <path style="opacity:0.95" fill="#6366f1"
            d="M 418.5,260.5 C 421.099,260.549 423.266,261.549 425,263.5C 433.753,279.083 438.42,295.75 439,313.5C 436.398,320.113 432.232,325.613 426.5,330C 416.841,337.5 406.508,344 395.5,349.5C 389.366,347.899 387.533,344.232 390,338.5C 396.746,333.544 403.579,328.71 410.5,324C 391.952,317.484 373.285,311.15 354.5,305C 348.587,301.994 347.92,297.994 352.5,293C 362.816,293.912 372.816,296.412 382.5,300.5C 383.782,298.821 384.782,296.987 385.5,295C 377.352,291.616 369.019,288.616 360.5,286C 355.532,283.578 354.532,280.078 357.5,275.5C 359.021,274.063 360.855,273.396 363,273.5C 381.921,279.196 400.754,285.196 419.5,291.5C 419.833,291 420.167,290.5 420.5,290C 417.759,282.443 415.425,274.777 413.5,267C 413.527,263.483 415.193,261.316 418.5,260.5 Z" />
    </g>
    <g>
        <path style="opacity:0.948" fill="#6366f1"
            d="M 50.5,308.5 C 56.1052,307.908 61.4386,308.741 66.5,311C 71.8956,320.025 69.8956,327.025 60.5,332C 55.5893,333.492 50.5893,333.826 45.5,333C 37.4725,329.247 35.6391,323.414 40,315.5C 42.9978,312.262 46.4978,309.929 50.5,308.5 Z" />
    </g>
    <g>
        <path style="opacity:0.941" fill="#6366f1"
            d="M 448.5,308.5 C 455.799,307.489 462.466,308.989 468.5,313C 475.059,319.412 475.059,325.745 468.5,332C 454.725,336.651 445.391,332.318 440.5,319C 441.143,313.869 443.809,310.369 448.5,308.5 Z" />
    </g>
    <g>
        <path style="opacity:0.948" fill="#6366f1"
            d="M 180.5,331.5 C 187.771,331.036 190.604,334.369 189,341.5C 183.711,348.578 178.544,355.745 173.5,363C 175.062,365.115 177.062,366.115 179.5,366C 184.333,359.167 189.167,352.333 194,345.5C 202.42,341.585 206.087,344.251 205,353.5C 193.378,369.245 181.878,385.078 170.5,401C 178.833,401.333 187.167,401.667 195.5,402C 199.292,404.053 200.458,407.219 199,411.5C 198.5,412.667 197.667,413.5 196.5,414C 179.38,417.404 162.38,417.07 145.5,413C 142.898,412.117 140.731,410.617 139,408.5C 129.804,392.713 124.804,375.713 124,357.5C 127.736,354.911 131.402,354.911 135,357.5C 137.821,365.786 140.488,374.119 143,382.5C 155.045,365.039 167.545,348.039 180.5,331.5 Z" />
    </g>
    <g>
        <path style="opacity:0.946" fill="#6366f1"
            d="M 325.5,331.5 C 328.272,331.22 330.772,331.887 333,333.5C 344.667,349.833 356.333,366.167 368,382.5C 370.512,374.119 373.179,365.786 376,357.5C 379.598,354.911 383.264,354.911 387,357.5C 386.15,374.392 381.817,390.392 374,405.5C 370.386,411.063 365.219,414.23 358.5,415C 346.178,416.724 333.845,416.724 321.5,415C 313.365,415.869 310.198,412.369 312,404.5C 312.833,403.667 313.667,402.833 314.5,402C 323.167,401.667 331.833,401.333 340.5,401C 329.122,385.078 317.622,369.245 306,353.5C 304.5,345.667 307.667,342.5 315.5,344C 320.833,351.333 326.167,358.667 331.5,366C 333.938,366.115 335.938,365.115 337.5,363C 332.333,355.833 327.167,348.667 322,341.5C 320.581,337.082 321.748,333.749 325.5,331.5 Z" />
    </g>
    <g>
        <path style="opacity:0.97" fill="#6366f1"
            d="M 242.5,358.5 C 245.602,358.154 248.435,358.821 251,360.5C 251.5,370.828 251.666,381.161 251.5,391.5C 253.833,391.5 256.167,391.5 258.5,391.5C 258.101,381.102 258.601,370.768 260,360.5C 263.667,357.833 267.333,357.833 271,360.5C 271.333,381.833 271.667,403.167 272,424.5C 278.902,418.966 286.068,413.799 293.5,409C 299.679,409.184 302.179,412.351 301,418.5C 289.477,430.339 276.31,439.839 261.5,447C 256.411,447.826 251.411,447.492 246.5,446C 232.917,438.755 220.75,429.589 210,418.5C 209.651,409.591 213.484,407.091 221.5,411C 227,415.167 232.5,419.333 238,423.5C 238.333,403.833 238.667,384.167 239,364.5C 239.007,361.69 240.174,359.69 242.5,358.5 Z" />
    </g>
    <g>
        <path style="opacity:0.947" fill="#6366f1"
            d="M 132.5,411.5 C 143.234,412.269 147.068,417.936 144,428.5C 140.252,439.607 132.752,443.773 121.5,441C 115.09,432.46 115.757,424.293 123.5,416.5C 126.154,414.011 129.154,412.344 132.5,411.5 Z" />
    </g>
    <g>
        <path style="opacity:0.941" fill="#6366f1"
            d="M 373.5,411.5 C 386.069,411.899 393.069,418.399 394.5,431C 391.431,442.251 384.765,444.917 374.5,439C 367.436,433.477 364.936,426.31 367,417.5C 368.494,414.686 370.66,412.686 373.5,411.5 Z" />
    </g>
    <g>
        <path style="opacity:0.941" fill="#6366f1"
            d="M 250.5,451.5 C 258.711,449.546 264.211,452.546 267,460.5C 269.349,469.436 267.182,476.936 260.5,483C 252.288,485.459 246.788,482.625 244,474.5C 241.671,465.413 243.838,457.746 250.5,451.5 Z" />
    </g>
</svg>